<svg xmlns="http://www.w3.org/2000/svg" viewBox="0 0 150 150"><defs><style>.cls-1{fill:#fff;}.cls-2{fill:none;stroke:#231f20;stroke-linecap:round;stroke-linejoin:round;}</style></defs><title>couincouin-icone</title><g id="fond"><polygon class="cls-1" points="8.33 85.67 41.83 51 45.46 53.77 67.83 31 97.68 54.5 109.67 42.33 141.67 68.67 108.83 101.67 107.94 100.78 84.5 124 52.67 101 43.17 110.5 8.33 85.67"/></g><g id="Calque_2" data-name="Calque 2"><polyline class="cls-2" points="52.67 101 43.17 110.5 8.33 85.67 41.83 51 73.33 75"/><polyline class="cls-2" points="8.33 85.67 94 113.17 141.67 68.67 109.67 42.33 87.33 65"/><polyline class="cls-2" points="41.83 51 50.19 99.1 43.17 110.5"/><polygon class="cls-2" points="50.19 99.1 85 63.33 94 113.17 84.5 124 50.19 99.1"/><polyline class="cls-2" points="45.46 53.77 67.83 31 75.14 73.47"/><line class="cls-2" x1="97.68" y1="54.5" x2="67.83" y2="31"/><polyline class="cls-2" points="109.67 42.33 118.98 89.85 85 63.33"/><line class="cls-2" x1="84.5" y1="124" x2="118.98" y2="89.85"/><polyline class="cls-2" points="141.67 68.67 108.83 101.67 107.94 100.78"/><line class="cls-2" x1="118.98" y1="89.85" x2="108.83" y2="101.67"/></g></svg>