<svg id="Calque_2" data-name="Calque 2" xmlns="http://www.w3.org/2000/svg" viewBox="0 0 32 32"><defs><style>.cls-1{fill:#fff;}.cls-2{fill:none;stroke:#231f20;stroke-linecap:round;stroke-linejoin:round;stroke-width:0.25px;}</style></defs><title>couincouin-icone_32-32</title><polygon class="cls-1" points="1.08 17.83 8.58 10.07 9.39 10.69 14.4 5.59 21.07 10.85 23.76 8.13 30.92 14.02 23.57 21.41 23.37 21.21 18.13 26.41 11 21.26 8.88 23.39 1.08 17.83"/><polyline class="cls-2" points="11 21.26 8.88 23.39 1.08 17.83 8.58 10.07 15.63 15.44"/><polyline class="cls-2" points="1.08 17.83 20.25 23.98 30.92 14.02 23.76 8.13 18.76 13.2"/><polyline class="cls-2" points="8.58 10.07 10.45 20.83 8.88 23.39"/><polygon class="cls-2" points="10.45 20.83 18.24 12.83 20.25 23.98 18.13 26.41 10.45 20.83"/><polyline class="cls-2" points="9.39 10.69 14.4 5.59 16.03 15.1"/><line class="cls-2" x1="21.07" y1="10.85" x2="14.4" y2="5.59"/><polyline class="cls-2" points="23.76 8.13 25.84 18.76 18.24 12.83"/><line class="cls-2" x1="18.13" y1="26.41" x2="25.84" y2="18.76"/><polyline class="cls-2" points="30.92 14.02 23.57 21.41 23.37 21.21"/><line class="cls-2" x1="25.84" y1="18.76" x2="23.57" y2="21.41"/></svg>