<svg id="Calque_2" data-name="Calque 2" xmlns="http://www.w3.org/2000/svg" viewBox="0 0 16 16"><defs><style>.cls-1{fill:#fff;}.cls-2{fill:none;stroke:#231f20;stroke-linecap:round;stroke-linejoin:round;stroke-width:0.25px;}</style></defs><title>couincouin-icone_16-16</title><polygon class="cls-1" points="0.34 8.94 4.19 4.96 4.61 5.27 7.18 2.66 10.6 5.36 11.98 3.96 15.66 6.99 11.89 10.78 11.78 10.67 9.09 13.34 5.43 10.7 4.34 11.79 0.34 8.94"/><polyline class="cls-2" points="5.43 10.7 4.34 11.79 0.34 8.94 4.19 4.96 7.81 7.71"/><polyline class="cls-2" points="0.34 8.94 10.18 12.1 15.66 6.99 11.98 3.96 9.42 6.56"/><polyline class="cls-2" points="4.19 4.96 5.15 10.48 4.34 11.79"/><polygon class="cls-2" points="5.15 10.48 9.15 6.37 10.18 12.1 9.09 13.34 5.15 10.48"/><polyline class="cls-2" points="4.61 5.27 7.18 2.66 8.02 7.54"/><line class="cls-2" x1="10.6" y1="5.36" x2="7.18" y2="2.66"/><polyline class="cls-2" points="11.98 3.96 13.05 9.42 9.15 6.37"/><line class="cls-2" x1="9.09" y1="13.34" x2="13.05" y2="9.42"/><polyline class="cls-2" points="15.66 6.99 11.89 10.78 11.78 10.67"/><line class="cls-2" x1="13.05" y1="9.42" x2="11.89" y2="10.78"/></svg>